<?xml version="1.0" encoding="UTF-8"?><svg xmlns="http://www.w3.org/2000/svg" xmlns:xlink="http://www.w3.org/1999/xlink" viewBox="0 0 1114.89 749.53"><defs><style>.o{fill:#704fc6;}.p{fill:url(#l);}.q{fill:url(#m);}.r{fill:url(#n);}.s{fill:url(#j);}.t{fill:url(#k);}</style><linearGradient id="j" x1="84.86" y1="157.94" x2="452.41" y2="438.03" gradientTransform="matrix(1, 0, 0, 1, 0, 0)" gradientUnits="userSpaceOnUse"><stop offset=".2" stop-color="#704fc6"/><stop offset=".21" stop-color="#7150c6"/><stop offset=".34" stop-color="#7b5cce"/><stop offset=".46" stop-color="#7f60d1"/><stop offset=".75" stop-color="#704fc6"/><stop offset=".85" stop-color="#6e4ec4" stop-opacity="1"/><stop offset=".88" stop-color="#6b4bbd" stop-opacity=".98"/><stop offset=".91" stop-color="#6446b1" stop-opacity=".95"/><stop offset=".93" stop-color="#5a40a0" stop-opacity=".91"/><stop offset=".95" stop-color="#4e378a" stop-opacity=".85"/><stop offset=".96" stop-color="#3f2c6f" stop-opacity=".78"/><stop offset=".98" stop-color="#2c1f4e" stop-opacity=".7"/><stop offset=".99" stop-color="#18112a" stop-opacity=".61"/><stop offset="1" stop-color="#000001" stop-opacity=".5"/><stop offset="1" stop-color="#000" stop-opacity=".5"/></linearGradient><linearGradient id="k" x1="21.46" y1="467.84" x2="168.91" y2="414.17" gradientTransform="matrix(1, 0, 0, 1, 0, 0)" gradientUnits="userSpaceOnUse"><stop offset="0" stop-color="#704fc6"/><stop offset=".1" stop-color="#704fc6"/><stop offset=".7" stop-color="#704fc6"/><stop offset=".74" stop-color="#6c4cc0" stop-opacity=".99"/><stop offset=".78" stop-color="#6346b0" stop-opacity=".95"/><stop offset=".83" stop-color="#553c96" stop-opacity=".88"/><stop offset=".88" stop-color="#402d72" stop-opacity=".79"/><stop offset=".93" stop-color="#261a43" stop-opacity=".67"/><stop offset=".99" stop-color="#06040b" stop-opacity=".53"/><stop offset="1" stop-color="#000" stop-opacity=".5"/></linearGradient><linearGradient id="l" x1="84.86" y1="157.94" x2="452.41" y2="438.03" gradientTransform="translate(1114.89 749.53) rotate(-180)" xlink:href="#j"/><linearGradient id="m" x1="21.46" y1="467.84" x2="168.91" y2="414.17" gradientTransform="translate(1114.89 749.53) rotate(-180)" xlink:href="#k"/><linearGradient id="n" x1="315.68" y1="532.78" x2="800.36" y2="218.02" gradientTransform="matrix(1, 0, 0, 1, 0, 0)" gradientUnits="userSpaceOnUse"><stop offset="0" stop-color="#000" stop-opacity=".5"/><stop offset="0" stop-color="#000001" stop-opacity=".5"/><stop offset=".01" stop-color="#18112a" stop-opacity=".61"/><stop offset=".02" stop-color="#2c1f4e" stop-opacity=".7"/><stop offset=".04" stop-color="#3f2c6f" stop-opacity=".78"/><stop offset=".05" stop-color="#4e378a" stop-opacity=".85"/><stop offset=".07" stop-color="#5a40a0" stop-opacity=".91"/><stop offset=".09" stop-color="#6446b1" stop-opacity=".95"/><stop offset=".12" stop-color="#6b4bbd" stop-opacity=".98"/><stop offset=".15" stop-color="#6e4ec4" stop-opacity="1"/><stop offset=".25" stop-color="#704fc6"/><stop offset=".5" stop-color="#7f60d1"/><stop offset=".75" stop-color="#704fc6"/><stop offset=".85" stop-color="#6e4ec4" stop-opacity="1"/><stop offset=".88" stop-color="#6b4bbd" stop-opacity=".98"/><stop offset=".91" stop-color="#6446b1" stop-opacity=".95"/><stop offset=".93" stop-color="#5a40a0" stop-opacity=".91"/><stop offset=".95" stop-color="#4e378a" stop-opacity=".85"/><stop offset=".96" stop-color="#3f2c6f" stop-opacity=".78"/><stop offset=".98" stop-color="#2c1f4e" stop-opacity=".7"/><stop offset=".99" stop-color="#18112a" stop-opacity=".61"/><stop offset="1" stop-color="#000001" stop-opacity=".5"/><stop offset="1" stop-color="#000" stop-opacity=".5"/></linearGradient></defs><g id="a"/><g id="b"><g id="c"><g><g><g><path id="d" d="M879.3,493.42c-16.3-2.5-30.8-7.5-32.2-8.8-.2-.1,.7-.7,1.8-3.7,12.5-33.6,18.1-65.9,18.2-104.9,.1-58.8-14.9-112.7-45.3-163-23.2-38.4-60.4-75.8-100.5-100.9-27-16.9-62.5-31.5-93.7-38.5-26.6-6-36.8-7-70.3-6.9-26.7,0-32.9,.4-44.5,2.2-36.9,5.9-63.9,14.4-93.5,29.3-32,16.1-55.6,33-81.4,58.5l-13.4,13.3-16.6-7.4c-13.8-4.5-15.6-5.2-36.6-10.2-6-1.4-13.2-1.8-13.3-1.9-.9-.8,16-20.7,30.9-36.6,8.6-9.2,30.2-28,43.2-37.7,16.6-12.5,25.1-18.1,40.2-26.7C447.2,6.72,535.1-9.18,618.3,5.12c53.7,9.2,98.4,26.7,144.4,56.6,82.8,53.8,142.4,141,162.2,237.3,6.4,31,7.4,41.3,7.3,77.5,0,35.4-.8,43.7-6.9,75-3.1,15.8-11.4,40.3-11.4,40.3,0,0-2.8,2.2-15.6,2.6-7.7,.2-16.2-.8-19-1Z"/><g><path id="e" d="M762.7,61.72c82.8,53.8,142.4,141,162.2,237.3,6.4,31,7.4,41.3,7.3,77.5,0,35.4-.8,43.7-6.9,75-3.1,15.8-11.4,40.3-11.4,40.3,0,0-2.8,2.2-15.6,2.6-7.7,.2-16.2-.8-19-1-16.3-2.5-30.8-7.5-32.2-8.8-.2-.1,.7-.7,1.8-3.7,12.5-33.6,18.1-65.9,18.2-104.9,.1-58.8-14.9-112.7-45.3-163-23.2-38.4-60.4-75.8-100.5-100.9"/><path id="f" d="M721.3,112.12c-27-16.9-62.5-31.5-93.7-38.5-26.6-6-36.8-7-70.3-6.9-26.7,0-32.9,.4-44.5,2.2-36.9,5.9-63.9,14.4-93.5,29.3-32,16.1-55.6,33-81.4,58.5l-13.4,13.3-16.6-7.4c-13.8-4.5-15.6-5.2-36.6-10.2-6-1.4-13.2-1.8-13.3-1.9-.9-.8,16-20.7,30.9-36.6,8.6-9.2,30.2-28,43.2-37.7,16.6-12.5,25.1-18.1,40.2-26.7C447.2,6.72,535.1-9.18,618.3,5.12c53.7,9.2,98.4,26.7,144.4,56.6"/></g></g><g><path id="g" d="M235.59,256.11c16.3,2.5,30.8,7.5,32.2,8.8,.2,.1-.7,.7-1.8,3.7-12.5,33.6-18.1,65.9-18.2,104.9-.1,58.8,14.9,112.7,45.3,163,23.2,38.4,60.4,75.8,100.5,100.9,27,16.9,62.5,31.5,93.7,38.5,26.6,6,36.8,7,70.3,6.9,26.7,0,32.9-.4,44.5-2.2,36.9-5.9,63.9-14.4,93.5-29.3,32-16.1,55.6-33,81.4-58.5l13.4-13.3,16.6,7.4c13.8,4.5,15.6,5.2,36.6,10.2,6,1.4,13.2,1.8,13.3,1.9,.9,.8-16,20.7-30.9,36.6-8.6,9.2-30.2,28-43.2,37.7-16.6,12.5-25.1,18.1-40.2,26.7-74.9,42.8-162.8,58.7-246,44.4-53.7-9.2-98.4-26.7-144.4-56.6-82.8-53.8-142.4-141-162.2-237.3-6.4-31-7.4-41.3-7.3-77.5,0-35.4,.8-43.7,6.9-75,3.1-15.8,11.4-40.3,11.4-40.3,0,0,2.8-2.2,15.6-2.6,7.7-.2,16.2,.8,19,1Z"/><g><path id="h" d="M352.19,687.81c-82.8-53.8-142.4-141-162.2-237.3-6.4-31-7.4-41.3-7.3-77.5,0-35.4,.8-43.7,6.9-75,3.1-15.8,11.4-40.3,11.4-40.3,0,0,2.8-2.2,15.6-2.6,7.7-.2,16.2,.8,19,1,16.3,2.5,30.8,7.5,32.2,8.8,.2,.1-.7,.7-1.8,3.7-12.5,33.6-18.1,65.9-18.2,104.9-.1,58.8,14.9,112.7,45.3,163,23.2,38.4,60.4,75.8,100.5,100.9"/><path id="i" d="M393.59,637.41c27,16.9,62.5,31.5,93.7,38.5,26.6,6,36.8,7,70.3,6.9,26.7,0,32.9-.4,44.5-2.2,36.9-5.9,63.9-14.4,93.5-29.3,32-16.1,55.6-33,81.4-58.5l13.4-13.3,16.6,7.4c13.8,4.5,15.6,5.2,36.6,10.2,6,1.4,13.2,1.8,13.3,1.9,.9,.8-16,20.7-30.9,36.6-8.6,9.2-30.2,28-43.2,37.7-16.6,12.5-25.1,18.1-40.2,26.7-74.9,42.8-162.8,58.7-246,44.4-53.7-9.2-98.4-26.7-144.4-56.6"/></g></g></g><g><path class="o" d="M331.4,555.02c1,0,18.7-7.7,28.9-12.5,47.2-22.6,97-55,181.5-117.9,81-60.3,81.7-60.8,98-72.2,67.5-47.3,117.4-75.6,165.5-93.9,6.5-2.5,12.7-4.5,13.6-4.5,1.3,0,.5-2.3-3.9-10.8-7-13.6-13.4-24-22.8-36.9l-7.5-10.2-4.2,1.9c-2.3,1-10.1,4.4-17.3,7.4-62.3,26.1-135.3,72.7-249.9,159.6-37.6,28.5-48.6,36.7-68,50.6-51.3,36.7-97.2,64.1-136.1,79.4l-10.1,4.1,2,5.1c5.6,11.6,16.1,32.5,26,45.6,2.2,2.8,4.1,5.2,4.3,5.2Z"/><g><path class="o" d="M216.8,578.32s-2.9-4.4-5.2-8.5c-5.7-9.9-15.2-31.1-21.3-45.7-2.8-6.9-4.8-12.8-5.6-13.2s-5.7-1.7-10.9-2.9c-50.2-11.5-89.2-48-102.4-95.9-4.2-15.2-5-21.9-4.9-39.1,.1-24.1,3.8-38.9,14.8-59.7,6.1-11.6,13.6-21.2,25.7-32.8,13.3-12.9,25.1-21.2,41.3-29,22.5-10.9,39.4-15.3,62-16.2,26.7-1,45,1.8,72.9,11.1,34.8,11.6,72.8,31.9,123.6,66.1,19.3,13,32.1,22,67.2,47.3l5.9,4.2,2.8-1.9c1.5-1.1,10.4-7.7,19.9-14.8,9.4-7,20.3-15,24.1-17.8,3.9-2.7,6.9-5.3,6.8-5.7-.1-.3-8.1-6.4-17.7-13.5-66.3-49-116.7-81.6-160.5-103.8-22.8-11.6-31.9-15.5-51.5-22.3-18.4-6.4-18.9-6.5-39.7-11.2-19.3-4.4-51.6-5.6-72.8-2.6-25.8,3.6-47.2,10.5-72,23.1-16.6,8.3-23.4,12.5-34.5,20.8C42.4,246.32,13.8,288.52,4.3,333.12c-5.6,25.9-5.7,50-.5,77.4,5.5,29.1,14.1,50.2,30.3,74.5,32.3,48.5,81.7,80,141.7,90.5,5.2,1,14.9,2,21.5,2.4,10.9,.6,19.5,.8,19.5,.4Z"/><g><path class="s" d="M81.3,313.32c6.1-11.6,13.6-21.2,25.7-32.8,13.3-12.9,25.1-21.2,41.3-29,22.5-10.9,39.4-15.3,62-16.2,26.7-1,45,1.8,72.9,11.1,34.8,11.6,72.8,31.9,123.6,66.1,19.3,13,32.1,22,67.2,47.3l5.9,4.2,2.8-1.9c1.5-1.1,10.4-7.7,19.9-14.8,9.4-7,20.3-15,24.1-17.8,3.9-2.7,6.9-5.3,6.8-5.7-.1-.3-8.1-6.4-17.7-13.5-66.3-49-116.7-81.6-160.5-103.8-22.8-11.6-31.9-15.5-51.5-22.3-18.4-6.4-18.9-6.5-39.7-11.2-19.3-4.4-51.6-5.6-72.8-2.6-25.8,3.6-47.2,10.5-72,23.1-16.6,8.3-23.4,12.5-34.5,20.8-27.08,20.44-48.53,45.03-62.97,71.76"/><path class="t" d="M21.83,286.08c-8.17,15.12-14.1,30.92-17.53,47.04-5.6,25.9-5.7,50-.5,77.4,5.5,29.1,14.1,50.2,30.3,74.5,32.3,48.5,81.7,80,141.7,90.5,5.2,1,14.9,2,21.5,2.4,10.9,.6,19.5,.8,19.5,.4,0,0-2.9-4.4-5.2-8.5-5.7-9.9-15.2-31.1-21.3-45.7-2.8-6.9-4.8-12.8-5.6-13.2s-5.7-1.7-10.9-2.9c-50.2-11.5-89.2-48-102.4-95.9-4.2-15.2-5-21.9-4.9-39.1,.1-24.1,3.8-38.9,14.8-59.7"/></g></g><g><path class="o" d="M898.09,171.21s2.9,4.4,5.2,8.5c5.7,9.9,15.2,31.1,21.3,45.7,2.8,6.9,4.8,12.8,5.6,13.2s5.7,1.7,10.9,2.9c50.2,11.5,89.2,48,102.4,95.9,4.2,15.2,5,21.9,4.9,39.1-.1,24.1-3.8,38.9-14.8,59.7-6.1,11.6-13.6,21.2-25.7,32.8-13.3,12.9-25.1,21.2-41.3,29-22.5,10.9-39.4,15.3-62,16.2-26.7,1-45-1.8-72.9-11.1-34.8-11.6-72.8-31.9-123.6-66.1-19.3-13-32.1-22-67.2-47.3l-5.9-4.2-2.8,1.9c-1.5,1.1-10.4,7.7-19.9,14.8-9.4,7-20.3,15-24.1,17.8-3.9,2.7-6.9,5.3-6.8,5.7,.1,.3,8.1,6.4,17.7,13.5,66.3,49,116.7,81.6,160.5,103.8,22.8,11.6,31.9,15.5,51.5,22.3,18.4,6.4,18.9,6.5,39.7,11.2,19.3,4.4,51.6,5.6,72.8,2.6,25.8-3.6,47.2-10.5,72-23.1,16.6-8.3,23.4-12.5,34.5-20.8,42.4-32,71-74.2,80.5-118.8,5.6-25.9,5.7-50,.5-77.4-5.5-29.1-14.1-50.2-30.3-74.5-32.3-48.5-81.7-80-141.7-90.5-5.2-1-14.9-2-21.5-2.4-10.9-.6-19.5-.8-19.5-.4Z"/><g><path class="p" d="M1033.59,436.21c-6.1,11.6-13.6,21.2-25.7,32.8-13.3,12.9-25.1,21.2-41.3,29-22.5,10.9-39.4,15.3-62,16.2-26.7,1-45-1.8-72.9-11.1-34.8-11.6-72.8-31.9-123.6-66.1-19.3-13-32.1-22-67.2-47.3l-5.9-4.2-2.8,1.9c-1.5,1.1-10.4,7.7-19.9,14.8-9.4,7-20.3,15-24.1,17.8-3.9,2.7-6.9,5.3-6.8,5.7,.1,.3,8.1,6.4,17.7,13.5,66.3,49,116.7,81.6,160.5,103.8,22.8,11.6,31.9,15.5,51.5,22.3,18.4,6.4,18.9,6.5,39.7,11.2,19.3,4.4,51.6,5.6,72.8,2.6,25.8-3.6,47.2-10.5,72-23.1,16.6-8.3,23.4-12.5,34.5-20.8,27.08-20.44,48.53-45.03,62.97-71.76"/><path class="q" d="M1093.06,463.45c8.17-15.12,14.1-30.92,17.53-47.04,5.6-25.9,5.7-50,.5-77.4-5.5-29.1-14.1-50.2-30.3-74.5-32.3-48.5-81.7-80-141.7-90.5-5.2-1-14.9-2-21.5-2.4-10.9-.6-19.5-.8-19.5-.4,0,0,2.9,4.4,5.2,8.5,5.7,9.9,15.2,31.1,21.3,45.7,2.8,6.9,4.8,12.8,5.6,13.2s5.7,1.7,10.9,2.9c50.2,11.5,89.2,48,102.4,95.9,4.2,15.2,5,21.9,4.9,39.1-.1,24.1-3.8,38.9-14.8,59.7"/></g></g><path class="r" d="M331.4,555.02c1,0,18.7-7.7,28.9-12.5,47.2-22.6,97-55,181.5-117.9,81-60.3,81.7-60.8,98-72.2,67.5-47.3,117.4-75.6,165.5-93.9,6.5-2.5,12.7-4.5,13.6-4.5,1.3,0,.5-2.3-3.9-10.8-7-13.6-13.4-24-22.8-36.9l-7.5-10.2-4.2,1.9c-2.3,1-10.1,4.4-17.3,7.4-62.3,26.1-135.3,72.7-249.9,159.6-37.6,28.5-48.6,36.7-68,50.6-51.3,36.7-97.2,64.1-136.1,79.4l-10.1,4.1,2,5.1c5.6,11.6,16.1,32.5,26,45.6,2.2,2.8,4.1,5.2,4.3,5.2Z"/></g></g></g></g></svg>